# xmcd CD database file
#
# Track frame offsets:
#	150
#	14129
#	30681
#	46924
#	56615
#	70502
#	87878
#	104295
#	131682
#	145750
#	169610
#	190973
#	227224
#	251152
#	267132
#	295764
#
# Disc length: 4317 seconds
#
# Revision: 0
# Processed by: cddbd v1.5.1PL0 Copyright (c) Steve Scherf et al.
# Submitted via: CDex 1.51
#
DISCID=e210db10
DTITLE=Booze Band - Live im Cafe Hahn
DYEAR=1900
DGENRE=Blues
TTITLE0=Anything you do
TTITLE1=I won't mind
TTITLE2=Bear
TTITLE3=Love Potion
TTITLE4=Mercy
TTITLE5=Shakey Ground
TTITLE6=You can't judge
TTITLE7=Hey Bartender
TTITLE8=Route 66
TTITLE9=Ain't no love
TTITLE10=Whiskey
TTITLE11=Blues
TTITLE12=Tulsatime
TTITLE13=Brown Sugar
TTITLE14=The Weight
TTITLE15=Green Stuff
EXTD=
EXTT0=
EXTT1=
EXTT2=
EXTT3=
EXTT4=
EXTT5=
EXTT6=
EXTT7=
EXTT8=
EXTT9=
EXTT10=
EXTT11=
EXTT12=
EXTT13=
EXTT14=
EXTT15=
PLAYORDER=
